<?xml version="1.0" encoding="UTF-8"?>
<svg width="172px" height="51px" viewBox="0 0 172 51" version="1.1" xmlns="http://www.w3.org/2000/svg" xmlns:xlink="http://www.w3.org/1999/xlink">
    <title>Group 407 Copy</title>
    <g id="Page-1" stroke="none" stroke-width="1" fill="none" fill-rule="evenodd">
        <g id="Group-407-Copy" transform="translate(0.000000, -0.000000)" fill="#FFFFFF" fill-rule="nonzero">
            <g id="Group" transform="translate(10.145000, 12.857000)">
                <polygon id="Path" points="21.017 0 35.374 0 35.374 24.611 21.583 24.611 0 37.469"></polygon>
            </g>
            <polygon id="Path" points="14.358 37.468 0 37.468 0 12.858 13.791 12.858 35.374 5.68434189e-14"></polygon>
            <g id="Group" transform="translate(58.789000, 12.324000)">
                <path d="M0,0.727 L16.337,0.727 C21.237,0.727 24.7,3.427 24.7,7.302 C24.7104595,9.18135854 23.6816643,10.9126892 22.026,11.802 L22.026,11.871 C24.2269518,12.8682205 25.6411344,15.0606728 25.642,17.477 C25.642,22.529 22.176,24.952 15.019,24.952 L0,24.952 L0,0.727 Z M15.041,9.968 C16.687,9.968 17.509,9.32 17.509,8.096 C17.509,6.908 16.686,6.296 15.041,6.296 L7.427,6.296 L7.427,9.967 L15.041,9.968 Z M15.648,19.396 C17.648,19.396 18.508,18.712 18.508,17.165 C18.508,15.725 17.568,14.934 15.648,14.934 L7.407,14.934 L7.407,19.397 L15.648,19.396 Z" id="Shape"></path>
                <path d="M28.111,15.607 L28.111,0.727 L35.536,0.727 L35.536,14.95 C35.536,18.203 37.307,19.76 40.736,19.76 C44.126,19.76 45.897,18.203 45.897,14.95 L45.897,0.727 L53.318,0.727 L53.318,15.607 C53.318,21.94 48.572,25.677 40.736,25.677 C32.782,25.677 28.111,21.975 28.111,15.607 Z" id="Path"></path>
                <path d="M55.845,12.838 C55.845,5.225 61.797,0 70.122,0 C76.522,0 81.687,3.287 82.854,8.374 L76.036,10.208 C75.3505889,7.54327132 72.8678897,5.74190805 70.122,5.917 C65.978,5.917 63.266,8.617 63.266,12.838 C63.266,17.059 65.978,19.759 70.122,19.759 C73.249,19.759 75.322,18.167 76.222,14.984 L83.191,16.576 C81.91,22.39 76.674,25.676 70.12,25.676 C61.797,25.677 55.845,20.452 55.845,12.838 Z" id="Path"></path>
                <polygon id="Path" points="85.837 0.727 93.258 0.727 93.258 10.486 93.334 10.486 102.977 0.727 112.621 0.727 102.035 11.282 112.771 24.951 103.391 24.951 97.063 15.885 96.988 15.885 93.259 19.585 93.259 24.949 85.838 24.949"></polygon>
            </g>
        </g>
    </g>
</svg>