<svg xmlns="http://www.w3.org/2000/svg" xmlns:xlink="http://www.w3.org/1999/xlink" width="168.56" height="50.326" viewBox="0 0 168.56 50.326"><defs><style>.a{fill:url(#a);}.b{fill:url(#b);}</style><linearGradient id="a" x1="0.285" y1="0.903" x2="1.047" y2="0.048" gradientUnits="objectBoundingBox"><stop offset="0" stop-color="#3c009e"/><stop offset="0.756" stop-color="#0069ff"/><stop offset="0.983" stop-color="#00abff"/></linearGradient><linearGradient id="b" x1="-0.296" y1="1.099" x2="0.761" y2="0.194" gradientUnits="objectBoundingBox"><stop offset="0.083" stop-color="#ffc600"/><stop offset="0.845" stop-color="#fc00b6"/></linearGradient></defs><g transform="translate(7.145 12.857)"><path class="a" d="M59.167,68.65H73.524V93.261H59.733L38.15,106.119Z" transform="translate(-38.15 -68.65)"/></g><path class="b" d="M14.358,37.468H0V12.858H13.791L35.374,0Z"/><g transform="translate(55.789 12.324)"><path d="M297.879,69.683h16.337c4.9,0,8.363,2.7,8.363,6.575a5.076,5.076,0,0,1-2.674,4.5v.069a6.157,6.157,0,0,1,3.616,5.606c0,5.052-3.466,7.475-10.623,7.475H297.879Zm15.041,9.241c1.646,0,2.468-.648,2.468-1.872,0-1.188-.823-1.8-2.468-1.8h-7.614v3.671Zm.607,9.428c2,0,2.86-.684,2.86-2.231,0-1.44-.94-2.231-2.86-2.231h-8.241v4.463Z" transform="translate(-297.879 -68.956)"/><path d="M447.975,84.563V69.683H455.4V83.906c0,3.253,1.771,4.81,5.2,4.81,3.39,0,5.161-1.557,5.161-4.81V69.683h7.421v14.88c0,6.333-4.746,10.07-12.582,10.07C452.646,94.633,447.975,90.931,447.975,84.563Z" transform="translate(-419.864 -68.956)"/><path d="M596.056,78.641c0-7.613,5.952-12.838,14.277-12.838,6.4,0,11.565,3.287,12.732,8.374l-6.818,1.834a5.73,5.73,0,0,0-5.914-4.291c-4.144,0-6.856,2.7-6.856,6.921s2.712,6.921,6.856,6.921c3.127,0,5.2-1.592,6.1-4.775l6.969,1.592c-1.281,5.814-6.517,9.1-13.071,9.1C602.008,91.48,596.056,86.255,596.056,78.641Z" transform="translate(-540.211 -65.803)"/><path d="M756.192,69.683h7.421v9.759h.076l9.643-9.759h9.644L772.39,80.238l10.736,13.669h-9.38l-6.328-9.066h-.075l-3.729,3.7v5.364h-7.421Z" transform="translate(-670.355 -68.956)"/></g></svg>